<svg version="1.1" xmlns="http://www.w3.org/2000/svg" xmlns:xlink="http://www.w3.org/1999/xlink" width="100" height="100" x="0px" y="0px" viewBox="0 0 100 100" style="enable-background:new 0 0 100 100;" xml:space="preserve">
<style type="text/css">.st0{fill:#efefef;}.st1{fill:#efefef;}</style><rect x="10" class="st0" width="1" height="50"/><rect x="20" class="st0" width="1" height="50"/><rect x="30" class="st0" width="1" height="50"/><rect x="40" class="st0" width="1" height="50"/><rect x="49.5" class="st1" width="2" height="100"/><rect class="st1" width="1" height="100"/><rect x="99" class="st1" width="1" height="100"/><rect class="st1" width="100" height="1"/><rect x="60" y="51" class="st0" width="1" height="49"/><rect x="70" y="51" class="st0" width="1" height="49"/><rect x="80" y="51" class="st0" width="1" height="49"/><rect x="90" y="51" class="st0" width="1" height="49"/><rect x="1" y="10" class="st0" width="48.5" height="1"/><rect x="1" y="20" class="st0" width="48.5" height="1"/><rect x="1" y="30" class="st0" width="48.5" height="1"/><rect x="1" y="40" class="st0" width="48.5" height="1"/><rect x="1" y="49" class="st1" width="99" height="2"/><rect x="0.5" y="99" class="st1" width="99" height="1"/><rect x="51.5" y="60" class="st0" width="47.5" height="1"/><rect x="51.5" y="70" class="st0" width="47.5" height="1"/><rect x="51.5" y="80" class="st0" width="47.5" height="1"/><rect x="51.5" y="90" class="st0" width="47.5" height="1"/><rect x="51.5" y="10" class="st0" width="47.5" height="1"/><rect x="51.5" y="20" class="st0" width="47.5" height="1"/><rect x="51.5" y="30" class="st0" width="47.5" height="1"/><rect x="51.5" y="40" class="st0" width="47.5" height="1"/><rect x="1" y="60" class="st0" width="48.5" height="1"/><rect x="1" y="70" class="st0" width="48.5" height="1"/><rect x="1" y="80" class="st0" width="48.5" height="1"/><rect x="1" y="90" class="st0" width="48.5" height="1"/><rect x="90" y="1" class="st0" width="1" height="48"/><rect x="80" y="1" class="st0" width="1" height="48"/><rect x="70" y="1" class="st0" width="1" height="48"/><rect x="60" y="1" class="st0" width="1" height="48"/><rect x="40" y="51" class="st0" width="1" height="48"/><rect x="30" y="51" class="st0" width="1" height="48"/><rect x="20" y="51" class="st0" width="1" height="48"/><rect x="10" y="51" class="st0" width="1" height="48"/></svg>
